<svg xmlns="http://www.w3.org/2000/svg" viewBox="0 0 256 256" role="img" aria-labelledby="title desc">
  <title id="title">AE Optimizer logo</title>
  <desc id="desc">A deep blue AE monogram for AE Optimizer</desc>
  <defs>
    <linearGradient id="aeBlue" x1="48" y1="34" x2="210" y2="222" gradientUnits="userSpaceOnUse">
      <stop offset="0" stop-color="#2A5178"/>
      <stop offset="0.52" stop-color="#1A3A57"/>
      <stop offset="1" stop-color="#0F2438"/>
    </linearGradient>
    <filter id="softShadow" x="-20%" y="-20%" width="140%" height="140%" color-interpolation-filters="sRGB">
      <feDropShadow dx="0" dy="12" stdDeviation="12" flood-color="#0F2438" flood-opacity="0.28"/>
    </filter>
  </defs>
  <g filter="url(#softShadow)">
    <path d="M128 18 224 73v110l-96 55-96-55V73l96-55Z" fill="url(#aeBlue)"/>
    <path d="M128 35 209 82v92l-81 47-81-47V82l81-47Z" fill="none" stroke="#C2A97C" stroke-width="7" opacity="0.9"/>
    <path d="M75 174 112 80h19l38 94h-22l-8-21h-37l-8 21H75Zm34-39h24l-12-32-12 32Z" fill="#F5EFE4"/>
    <path d="M153 82h58v19h-36v18h32v18h-32v18h38v19h-60V82Z" fill="#F5EFE4" opacity="0.95"/>
    <path d="M72 188h112" stroke="#C2A97C" stroke-width="8" stroke-linecap="round" opacity="0.95"/>
  </g>
</svg>